<svg xmlns="http://www.w3.org/2000/svg" width="155.542" height="128.31" viewBox="0 0 155.542 128.31">
  <g id="Group" transform="translate(-272.229 -103.403)">
    <path id="Path_98" data-name="Path 98" d="M412.019,124.914l-.2-.118a22.313,22.313,0,0,0-5.514,1.98q-.746.366-1.491.8l-3.186,1.838-.616.355-4.133,2.39-25.029,14.451-5.1,2.942L336.31,167.138l-4.464,2.572-2.469,1.427v5.412l7.47-4.315,4.449-2.564,24.152-13.953,7.1-4.1L395.4,138.426l5.1-2.942,4.338-2.508c.292-.174.592-.332.883-.49h.008a16.76,16.76,0,0,1,5.869-1.908,9.394,9.394,0,0,1,7.6,2.192C418.266,129.891,415.876,127.138,412.019,124.914Z"/>
    <path id="Path_99" data-name="Path 99" d="M423.078,143.375c.031,11.525-8.1,25.6-18.127,31.4l-26.274,15.168-8.172,4.717-3.637,2.1h-.008L358.7,201.47l-5.939,3.431h-.008l-8.164,4.717L321.1,223.178c-10.033,5.79-18.213,1.128-18.244-10.4a27.635,27.635,0,0,1,.26-3.747,35.388,35.388,0,0,1,1.483-6.271l27.947-16.131,8.164-4.717,3.644-2.1,8.164-4.717,26.5-15.295c7.233-4.173,13.472-12.652,16.383-21.376l5.1-2.942,4.338-2.509C414.859,127.189,423.039,131.859,423.078,143.375Z" fill="#a278f4"/>
    <path id="Path_100" data-name="Path 100" d="M366.861,196.753,358.7,201.47l-26.149-14.837,8.164-4.717Z" fill="#7732ff"/>
    <path id="Path_101" data-name="Path 101" d="M378.677,189.938l-8.172,4.717-26.148-14.837,8.164-4.717Z" fill="#7732ff"/>
    <path id="Path_102" data-name="Path 102" d="M419.647,135.681v11.083c0,3.857-2.54,7.706-7.628,10.64l-42.027,24.264c-10.176,5.876-26.677,5.876-36.853,0l-6.318-3.644-4.677-2.706L303.5,164.559a17.389,17.389,0,0,1-5.789-5.088,9.87,9.87,0,0,1-1.823-5.088h-.023V142.709l9.568-.544,40.094-23.143c10.176-5.877,26.677-5.877,36.853,0l18.631,10.751,4.7,2.713h.008L412,136.115l7.636-.434Z" fill="#7732ff"/>
    <path id="Path_103" data-name="Path 103" d="M427.771,140.666c.04,14.514-10.175,32.207-22.8,39.495l-83.849,48.417c-6.484,3.738-12.345,4.022-16.525,1.443-3.96-2.445-6.4-7.454-6.429-14.53a31.388,31.388,0,0,1,.2-3.715,40.241,40.241,0,0,1,1.144-6.073c3.163-11.935,11.572-24,21.455-29.707l1.176-.678,2.563-1.483,4.67-2.7v5.412l-2.556,1.475-5.837,3.368c-7.233,4.173-13.473,12.652-16.383,21.368a35.409,35.409,0,0,0-1.483,6.271,27.635,27.635,0,0,0-.26,3.747c.031,11.524,8.211,16.186,18.244,10.4l83.849-48.408c10.026-5.79,18.158-19.87,18.127-31.394-.016-4.828-1.467-8.448-3.881-10.6-.931-2.879-3.321-5.632-7.178-7.856l-.2-.118a13.037,13.037,0,0,1,8.7.891,9.806,9.806,0,0,1,1.128.647C425.428,128.85,427.748,133.78,427.771,140.666Z" fill="#7732ff"/>
    <path id="Path_104" data-name="Path 104" d="M419.639,135.681c-.048,3.81-2.6,7.612-7.62,10.515l-42.027,24.263c-9.016,5.206-23,5.8-33.145,1.775a27.212,27.212,0,0,1-3.708-1.775l-1.293-.749L310.6,157.444l-4.685-2.706L303.5,153.35c-5.087-2.942-7.635-6.791-7.635-10.641s2.548-7.7,7.635-10.633l42.027-24.271c10.176-5.869,26.677-5.869,36.853,0l3.51,2.027,14.869,8.582,11.059,6.382.2.118c3.857,2.224,6.247,4.977,7.178,7.856A8.627,8.627,0,0,1,419.639,135.681Z" fill="#a278f4"/>
    <path id="Path_105" data-name="Path 105" d="M338.136,168.189l-30.7-17.726c-7.562-4.366-7.562-11.445,0-15.811L350,110.078c7.562-4.366,19.823-4.366,27.386,0l30.7,17.725c7.562,4.366,7.562,11.445,0,15.811l-42.564,24.575C357.959,172.555,345.7,172.555,338.136,168.189Z" fill="#fff"/>
    <path id="Path_106" data-name="Path 106" d="M335.192,156.607a8.788,8.788,0,0,1-7.942.141c-2.125-1.227-2.016-3.28.244-4.585a8.788,8.788,0,0,1,7.942-.141C337.562,153.249,337.453,155.3,335.192,156.607Z" fill="#c1d2d8"/>
    <path id="Path_107" data-name="Path 107" d="M329.377,171.141l-4.67,2.7-.5.284-2.066,1.2-1.176.678a34.929,34.929,0,0,0-4.48,3.092c-.781.623-1.546,1.294-2.3,2a48.4,48.4,0,0,0-5.569,6.216c-.592.765-1.152,1.546-1.688,2.35a55.6,55.6,0,0,0-4.078,7.076,51.558,51.558,0,0,0-3.345,8.976,40.277,40.277,0,0,0-1.144,6.074,31.377,31.377,0,0,0-.2,3.715c.024,7.075,2.469,12.084,6.429,14.53L279.257,215.4l-.048-.023-.638-.371c-3.913-2.461-6.319-7.454-6.342-14.474a44.052,44.052,0,0,1,4.7-18.766,55.275,55.275,0,0,1,4.07-7.083c.544-.8,1.1-1.586,1.688-2.351a48.541,48.541,0,0,1,5.569-6.216c.749-.7,1.522-1.372,2.3-1.995a34.764,34.764,0,0,1,4.473-3.092l2.682-1.554.56-.324,5.174-2.981,4.686,2.705Z" fill="#a278f4"/>
    <path id="Path_108" data-name="Path 108" d="M420.522,125.687a13.037,13.037,0,0,0-8.7-.891l-11.059-6.382-14.869-8.582a12.99,12.99,0,0,1,8.732.907l1,.576Z" fill="#a278f4"/>
    <g id="Group_88" data-name="Group 88">
      <path id="Path_109" data-name="Path 109" d="M387.7,165.791a2.008,2.008,0,0,1-.967,1.526c-.534.308-.967.125-.967-.409a2,2,0,0,1,.967-1.525C387.271,165.074,387.7,165.257,387.7,165.791Z" fill="#454141"/>
      <path id="Path_110" data-name="Path 110" d="M391.25,163.744a2.008,2.008,0,0,1-.967,1.526c-.534.308-.967.125-.967-.409a2,2,0,0,1,.967-1.525C390.817,163.027,391.25,163.21,391.25,163.744Z" fill="#454141"/>
      <path id="Path_111" data-name="Path 111" d="M394.8,161.7a2,2,0,0,1-.967,1.525c-.534.309-.967.126-.967-.408a2.008,2.008,0,0,1,.967-1.526C394.363,160.98,394.8,161.163,394.8,161.7Z" fill="#454141"/>
    </g>
    <path id="Path_112" data-name="Path 112" d="M324.21,174.123l-2.066,1.2-1.176.678a34.929,34.929,0,0,0-4.48,3.092L290.56,164.121a34.764,34.764,0,0,1,4.473-3.092l2.682-1.554.56-.324Z" fill="#7732ff"/>
    <path id="Path_113" data-name="Path 113" d="M352.792,204.922l-2.067,1.2-1.175.678a35.01,35.01,0,0,0-4.481,3.092L319.142,194.92a34.753,34.753,0,0,1,4.472-3.092l2.682-1.554.56-.324Z" fill="#7732ff"/>
    <path id="Path_114" data-name="Path 114" d="M314.193,181.088a48.4,48.4,0,0,0-5.569,6.216l-25.936-14.972a48.541,48.541,0,0,1,5.569-6.216Z" fill="#7732ff"/>
    <path id="Path_115" data-name="Path 115" d="M306.936,189.654a55.6,55.6,0,0,0-4.078,7.076L276.93,181.766a55.275,55.275,0,0,1,4.07-7.083Z" fill="#7732ff"/>
    <path id="Path_116" data-name="Path 116" d="M378.463,133.406a17.619,17.619,0,0,0-9.575-1.988c.352-1.948-.8-4-3.444-5.529-4.558-2.632-11.8-2.715-16.185-.186-8.2,4.734-3.922,19.312-3.922,19.312s26.056,2,33.449-2.265C383.167,140.221,383.022,136.038,378.463,133.406Z" fill="#e6235f"/>
  </g>
</svg>
