<svg xmlns="http://www.w3.org/2000/svg" xmlns:xlink="http://www.w3.org/1999/xlink" width="405.116" height="364.631" viewBox="0 0 405.116 364.631">
  <defs>
    <clipPath id="clip-path">
      <path id="Path_63" data-name="Path 63" d="M345.512,143.586s.766-4.418,8.226-2.56c6.7,1.668,6.919,5.181,6.919,5.181s-1.89,5.736-9.353,4.655S345.512,143.586,345.512,143.586Z" fill="#fff"/>
    </clipPath>
    <clipPath id="clip-path-2">
      <path id="Path_67" data-name="Path 67" d="M331.577,141.375s.73-4.3-4.555-4.657c-4.744-.32-5.855,2.87-5.855,2.87s-.312,5.287,4.76,6.363S331.577,141.375,331.577,141.375Z" fill="#fff"/>
    </clipPath>
  </defs>
  <g id="OBJECTS" transform="translate(-48.607 -89.231)">
    <g id="Group_87" data-name="Group 87">
      <g id="Group_86" data-name="Group 86">
        <g id="Group_40" data-name="Group 40">
          <g id="Group_12" data-name="Group 12">
            <path id="Path_48" data-name="Path 48" d="M265.541,374.323l-29.514,78.818h62.642l11.862-34.247,6.175,1,1.868,33.244,60.086-.1L375.8,389.892Z"/>
            <line id="Line_2" data-name="Line 2" x1="23.605" y1="4.265" transform="translate(292.501 415.523)" fill="none" stroke="#f8e6f0" stroke-linecap="round" stroke-linejoin="round" stroke-width="1"/>
          </g>
          <g id="Group_25" data-name="Group 25">
            <path id="Path_49" data-name="Path 49" d="M390.474,138.876c-3.017,18.9-28.983,31.034-42.442,28.316-18.76-3.789-31.774-20.783-28.757-39.682a34.653,34.653,0,0,1,39.682-28.757C377.856,101.77,393.9,117.387,390.474,138.876Z" fill="#9d583b"/>
            <g id="Group_13" data-name="Group 13">
              <path id="Path_50" data-name="Path 50" d="M332.9,152.167c-1.235,6.091-6.956,9.089-13.047,7.854s-9.727-8.5-8.491-14.588,6.655-7.766,12.746-6.531A11.252,11.252,0,0,1,332.9,152.167Z" fill="#d4957a"/>
            </g>
            <path id="Path_51" data-name="Path 51" d="M361.2,166.3l-3.876,46.266-28.7-1.484,7.635-40.474Z" fill="#e3aa8c"/>
            <path id="Path_52" data-name="Path 52" d="M331.714,194.746s17.553-1.244,30.441-20.131l-27.062,2.219Z"/>
            <path id="Path_53" data-name="Path 53" d="M346.6,102.283s-24.515-3.1-27.793,29.228-.871,41.453,10.877,50.238c10.557,7.9,26.169,4.856,36.718-7.429a49.148,49.148,0,0,0,9.375-18.657l3.244-8.063S395.725,107.588,346.6,102.283Z" fill="#e3aa8c"/>
            <path id="Path_54" data-name="Path 54" d="M380.611,117.539s-62.879,9.2-67.589-11.585,28.528-21.2,38.932-6.732C351.954,99.222,374.429,103.742,380.611,117.539Z"/>
            <path id="Path_55" data-name="Path 55" d="M377.635,114.045c-.206-.26-10.44,10.643-2.085,23.652l-5.035,17.271,3.75,2.325,8.413-9.816,3.422-21.434Z"/>
            <path id="Path_56" data-name="Path 56" d="M345.893,95.63s21.725-8.641,39.948,5.894c14.339,11.437-6.879,25.777-6.879,25.777l-3.486-13.843-18.754-8.445Z"/>
            <path id="Path_57" data-name="Path 57" d="M384.229,112s16.684-.366,16.24,16.335S374.417,165.4,374.417,165.4Z"/>
            <g id="Group_14" data-name="Group 14">
              <path id="Path_58" data-name="Path 58" d="M368.148,161.191c.359,6.205,2.9,8.95,11.038,8.613,6.209-.258,10.833-7.033,10.473-13.237s-5.044-8.406-11.6-7.428C373.5,149.82,367.788,154.987,368.148,161.191Z" fill="#e3aa8c"/>
              <path id="Path_59" data-name="Path 59" d="M383.227,156.6s-5.474-2.173-8.751,5.576" fill="none" stroke="#000" stroke-linecap="round" stroke-linejoin="round" stroke-width="1.138"/>
            </g>
            <g id="Group_24" data-name="Group 24">
              <g id="Group_21" data-name="Group 21">
                <path id="Path_60" data-name="Path 60" d="M334.345,146.927l-4.926,7.992,3.768,2.952" fill="none" stroke="#000" stroke-linecap="round" stroke-linejoin="round" stroke-width="1.138"/>
                <g id="Group_17" data-name="Group 17">
                  <g id="Group_16" data-name="Group 16">
                    <path id="Path_61" data-name="Path 61" d="M345.512,143.586s.766-4.418,8.226-2.56c6.7,1.668,6.919,5.181,6.919,5.181s-1.89,5.736-9.353,4.655S345.512,143.586,345.512,143.586Z" fill="#fff"/>
                    <g id="Group_15" data-name="Group 15" clip-path="url(#clip-path)">
                      <path id="Path_62" data-name="Path 62" d="M356.6,146.1c-.535,3.138-3.076,5.318-5.676,4.868s-4.273-3.359-3.738-6.5,3.076-5.318,5.676-4.868S357.133,142.961,356.6,146.1Z"/>
                    </g>
                  </g>
                  <path id="Path_64" data-name="Path 64" d="M345.591,142.018a11.291,11.291,0,0,1,7.521-1.5,8.774,8.774,0,0,1,7.545,5.685" fill="none" stroke="#000" stroke-linecap="round" stroke-linejoin="round" stroke-width="1.873"/>
                </g>
                <g id="Group_20" data-name="Group 20">
                  <g id="Group_19" data-name="Group 19">
                    <path id="Path_65" data-name="Path 65" d="M331.577,141.375s.73-4.3-4.555-4.657c-4.744-.32-5.855,2.87-5.855,2.87s-.312,5.287,4.76,6.363S331.577,141.375,331.577,141.375Z" fill="#fff"/>
                    <g id="Group_18" data-name="Group 18" clip-path="url(#clip-path-2)">
                      <path id="Path_66" data-name="Path 66" d="M322.8,140.483c-.524,3.053.6,5.795,2.519,6.123s3.893-1.879,4.417-4.932-.6-5.794-2.519-6.123S323.321,137.431,322.8,140.483Z"/>
                    </g>
                  </g>
                  <path id="Path_68" data-name="Path 68" d="M331.96,139.9a6.986,6.986,0,0,0-4.4-3.477c-4.065-1.034-6.4,3.163-6.4,3.163" fill="none" stroke="#000" stroke-linecap="round" stroke-linejoin="round" stroke-width="1.532"/>
                </g>
                <path id="Path_69" data-name="Path 69" d="M357.473,126.261s4.812,1.1,7.663,3.334c2.361,1.847,1.785,4.338-.621,5.118-1.492.483-5.538.158-8.194-.436-8.373-1.87-9.4-4.81-8.849-6.783C348.245,124.721,354.06,125.314,357.473,126.261Z"/>
                <path id="Path_70" data-name="Path 70" d="M327.494,121.557a16.783,16.783,0,0,0-6.766,1.04c-2.39,1.068-2.9,3.494-1.456,4.837.9.832,3.919,1.772,6.071,1.748,7-.078,8.567-1.934,8.9-3.879C334.722,122.567,330.308,121.586,327.494,121.557Z"/>
              </g>
              <g id="Group_22" data-name="Group 22">
                <path id="Path_71" data-name="Path 71" d="M317.02,156.237l13.449-3.962,28.27,10.622s2.919,4.615.6,17.816c0,0-13.4,10.213-26.211,3.323C320.963,177.5,316.976,167.1,317.02,156.237Z" fill="#9480ee"/>
                <path id="Path_72" data-name="Path 72" d="M356.923,181.214a39.853,39.853,0,0,0,13.85-13.246" fill="none" stroke="#9480ee" stroke-miterlimit="10" stroke-width="1.765"/>
                <path id="Path_73" data-name="Path 73" d="M353.743,170.073s6.632-14.145,18.533-15.861" fill="none" stroke="#9480ee" stroke-miterlimit="10" stroke-width="1.765"/>
              </g>
              <g id="Group_23" data-name="Group 23">
                <circle id="Ellipse_23" data-name="Ellipse 23" cx="12.433" cy="12.433" r="12.433" transform="translate(339.357 158.539) rotate(-89.551)" fill="none" stroke="#fff" stroke-miterlimit="10" stroke-width="1.41"/>
                <path id="Path_74" data-name="Path 74" d="M333.063,142.651c-1.307,6.74-7.13,11.333-13.008,10.258s-9.583-7.41-8.276-14.149,7.13-11.333,13.008-10.258S334.37,135.912,333.063,142.651Z" fill="none" stroke="#fff" stroke-miterlimit="10" stroke-width="1.41"/>
                <path id="Path_75" data-name="Path 75" d="M333.062,142.651a6.782,6.782,0,0,1,6.608,1.247" fill="none" stroke="#fff" stroke-miterlimit="10" stroke-width="1.41"/>
                <line id="Line_3" data-name="Line 3" x2="7.804" y2="1.514" transform="translate(364.159 148.193)" fill="none" stroke="#fff" stroke-miterlimit="10" stroke-width="1.41"/>
              </g>
            </g>
          </g>
          <g id="Group_39" data-name="Group 39">
            <path id="Path_76" data-name="Path 76" d="M336.328,209.892l-14.308,2.217c-20.755,8.665-36.044,17.692-38.6,35.8L265.541,374.323,375.8,389.892l.643-77.64,12.643-66.405c1.787-9.388-15.1-24.875-23.5-29.437l-8.266-3.841Z" fill="#fcfdff"/>
            <g id="Group_27" data-name="Group 27">
              <path id="Path_77" data-name="Path 77" d="M301.019,217.173S280.08,220.679,269.7,227.6s-76.959,51.1-76.959,51.1l13.219,42.7L269.894,287.2Z" fill="#9480ee"/>
              <g id="Group_26" data-name="Group 26">
                <path id="Path_78" data-name="Path 78" d="M322.02,212.109l-27.153,6.548a12.757,12.757,0,0,0-9.788,9.5L238.653,403.687l24.581,1.6S287.068,347.649,292,302.829C299.892,231.081,322.02,212.109,322.02,212.109Z" fill="#9480ee"/>
                <line id="Line_4" data-name="Line 4" y1="30.136" x2="8.633" transform="translate(269.894 257.069)" fill="none" stroke="#000" stroke-linecap="round" stroke-linejoin="round" stroke-width="1.084"/>
                <path id="Path_79" data-name="Path 79" d="M322.02,212.109l-8.812,1.844s-11.365,3.35-23.694,23.411l7.321,3.457-9.548,5.8L287.4,329.4s4.406-19.956,8.782-50.422C303.183,230.269,322.02,212.109,322.02,212.109Z" fill="#b6abf8"/>
              </g>
            </g>
            <g id="Group_34" data-name="Group 34">
              <g id="Group_28" data-name="Group 28">
                <path id="Path_80" data-name="Path 80" d="M365.593,216.41s-29.929,32.186-33.108,98.358,15.306,103.753,15.306,103.753l59.878,7.269s-19.694-57.06-21.19-82.658c11.248-70.149,11.51-70.666,18.713-92.715,2.542-7.78.514-13.411-15.322-21.39Z" fill="#9480ee"/>
                <path id="Path_81" data-name="Path 81" d="M365.593,216.41l6.863,3.516-3.323,26.133-13.257,1.566,9.268,15.664-32.855,76.859S325.026,263.79,365.593,216.41Z" fill="#b6abf8"/>
              </g>
              <g id="Group_33" data-name="Group 33">
                <g id="Group_29" data-name="Group 29">
                  <path id="Path_82" data-name="Path 82" d="M407.6,242.186a388.272,388.272,0,0,1,42.66,61.294c4.638,9.378,1.486,22.809-7.24,28.582h0c-10.223,6.763-25.931,4.9-31.675-5.932L374.2,275.373c-5.8-10.943-7.771-37.864,3.4-43.222h0C388.359,226.986,399.8,233.149,407.6,242.186Z" fill="#9480ee"/>
                  <line id="Line_5" data-name="Line 5" x1="15.123" y1="20.533" transform="translate(377.987 281.769)" fill="none" stroke="#000" stroke-linecap="round" stroke-linejoin="round" stroke-width="1.084"/>
                </g>
                <g id="Group_32" data-name="Group 32">
                  <g id="Group_30" data-name="Group 30">
                    <path id="Path_83" data-name="Path 83" d="M379.112,393.194l7.992-10.471-15.29-9.957-6.393,9.172-8.568-2.233L372,406.089Z" fill="#e3aa8c"/>
                    <line id="Line_6" data-name="Line 6" x1="19.877" y1="33.323" transform="translate(352.12 372.765)" fill="none" stroke="#000" stroke-linecap="round" stroke-linejoin="round" stroke-width="1.084"/>
                  </g>
                  <g id="Group_31" data-name="Group 31">
                    <path id="Path_84" data-name="Path 84" d="M449.034,325.937l-56.2,69.523-29.818-24.012L411.149,301.6Z" fill="#9480ee"/>
                    <path id="Path_85" data-name="Path 85" d="M387.107,336.493l-24.086,34.956,6.22,5.009" fill="none" stroke="#000" stroke-linecap="round" stroke-linejoin="round" stroke-width="1.084"/>
                    <line id="Line_7" data-name="Line 7" y1="11.204" x2="8.64" transform="translate(402.429 303.052)" fill="none" stroke="#000" stroke-linecap="round" stroke-linejoin="round" stroke-width="1.084"/>
                  </g>
                </g>
              </g>
            </g>
            <g id="Group_38" data-name="Group 38">
              <path id="Path_86" data-name="Path 86" d="M357.327,212.569l-26.92,10.346-1.775-11.83,7.7-1.192,21,2.676Z" fill="#e3aa8c"/>
              <g id="Group_37" data-name="Group 37">
                <g id="Group_35" data-name="Group 35">
                  <path id="Path_87" data-name="Path 87" d="M330.406,222.915l6.574,15.778,31.165-20.975-10.819-5.149Z" fill="#e3ebf5"/>
                  <path id="Path_88" data-name="Path 88" d="M330.406,222.915l-14.852,7.753,5.652-18.433,7.425-1.15Z" fill="#e3ebf5"/>
                </g>
                <g id="Group_36" data-name="Group 36">
                  <path id="Path_89" data-name="Path 89" d="M330.406,222.915l-10.81,5.643,3.853,8.461,11.619-2.917Z" fill="#7058e6"/>
                  <path id="Path_90" data-name="Path 90" d="M328.594,233.016s-18.982,57.3,21.147,116.673l-6.347,21.228-19.346-8s-27.567-67.069-.046-130.2Z" fill="#7058e6"/>
                </g>
              </g>
            </g>
          </g>
        </g>
        <g id="Group_85" data-name="Group 85">
          <g id="Group_45" data-name="Group 45">
            <g id="Group_41" data-name="Group 41">
              <path id="Path_91" data-name="Path 91" d="M281.776,179.015c-29.443-9.607-45.974-35.182-51.615-45.49a4.109,4.109,0,0,0-2.794-2.058l0-.007-14.526-4.414-6.036,8.658-.433,6c-18.945,7.142-37.34,5.6-46.043,4.208a6.823,6.823,0,0,0-7.395,4.081c-43.883,105.3-15.352,158,4.646,179.577l-.519,7.059,14.711,4.471a9.9,9.9,0,0,0,4.259.433c80.708-9.922,105.585-126.861,110.409-154.9A6.807,6.807,0,0,0,281.776,179.015Z" fill="#7732ff"/>
              <path id="Path_92" data-name="Path 92" d="M215.449,129.055c5.641,10.307,22.173,35.882,51.616,45.489a6.806,6.806,0,0,1,4.665,7.61c-4.824,28.044-29.7,144.982-110.409,154.9a10.394,10.394,0,0,1-7.338-1.991C138.969,324.2,84.67,274.025,138.225,145.519a6.82,6.82,0,0,1,7.394-4.082c11.424,1.833,39.548,3.928,63.7-13.717A4.177,4.177,0,0,1,215.449,129.055Z" fill="#7732ff"/>
              <g id="Path_93" data-name="Path 93" fill="none" stroke-miterlimit="10">
                <path d="M215.449,129.055c5.641,10.307,22.173,35.882,51.616,45.489a6.806,6.806,0,0,1,4.665,7.61c-4.824,28.044-29.7,144.982-110.409,154.9a10.394,10.394,0,0,1-7.338-1.991C138.969,324.2,84.67,274.025,138.225,145.519a6.82,6.82,0,0,1,7.394-4.082c11.424,1.833,39.548,3.928,63.7-13.717A4.177,4.177,0,0,1,215.449,129.055Z" stroke="none"/>
                <path d="M 209.9251098632813 139.2839050292969 C 192.3711853027344 150.1524047851563 173.8055114746094 152.5616149902344 160.8055419921875 152.5616149902344 C 154.9485321044922 152.5616149902344 149.8873748779297 152.0769653320313 146.4697113037109 151.5928344726563 C 97.87985229492188 270.1583251953125 144.3302154541016 315.80810546875 160.1082000732422 327.1926879882813 C 232.0325927734375 318.3505249023438 256.3358459472656 211.0777740478516 261.4614868164063 183.1270446777344 C 234.6052703857422 173.4245300292969 217.9479370117188 152.1603088378906 209.9251098632813 139.2839050292969 M 211.8017120361328 126.9055786132813 C 213.2616577148438 126.9055786132813 214.6875762939453 127.6630554199219 215.4489898681641 129.0549926757813 C 221.0899963378906 139.3619995117188 237.6219940185547 164.93701171875 267.0650024414063 174.5440063476563 C 270.2969970703125 175.5989990234375 272.3070068359375 178.8030090332031 271.72998046875 182.1539916992188 C 266.906005859375 210.197998046875 242.0289916992188 327.135986328125 161.3209991455078 337.0579833984375 C 160.9300231933594 337.1061706542969 160.5390014648438 337.1296997070313 160.1495666503906 337.1296997070313 C 157.9442749023438 337.1296997070313 155.7899169921875 336.375 153.9830017089844 335.0670166015625 C 138.968994140625 324.197998046875 84.66998291015625 274.0249938964844 138.2249908447266 145.5190124511719 C 139.2945861816406 142.9512634277344 141.8059997558594 141.3492431640625 144.519775390625 141.34912109375 C 144.8836212158203 141.3490905761719 145.2508392333984 141.3778991699219 145.6189880371094 141.43701171875 C 149.2301330566406 142.0164184570313 154.5101318359375 142.6220092773438 160.8055419921875 142.6220092773438 C 174.4259643554688 142.6220092773438 192.8002014160156 139.7873840332031 209.3150024414063 127.7200012207031 C 210.0694274902344 127.1687316894531 210.9415893554688 126.9055786132813 211.8017120361328 126.9055786132813 Z" stroke="none" fill="#938eef"/>
              </g>
            </g>
            <g id="Group_44" data-name="Group 44">
              <g id="Group_42" data-name="Group 42">
                <path id="Path_94" data-name="Path 94" d="M184.166,266.987l-12.679-3.138a4.362,4.362,0,0,1-3.186-5.282L185.2,190.994a4.362,4.362,0,0,1,5.282-3.186l12.679,3.137a4.362,4.362,0,0,1,3.186,5.282L189.448,263.8A4.363,4.363,0,0,1,184.166,266.987Z" fill="#210088"/>
                <path id="Path_95" data-name="Path 95" d="M223.987,226.719,219.9,243.23a4.361,4.361,0,0,1-5.281,3.186l-57.472-14.341a4.361,4.361,0,0,1-3.186-5.281l4.086-16.511a4.362,4.362,0,0,1,5.282-3.186l57.471,14.34A4.362,4.362,0,0,1,223.987,226.719Z" fill="#210088"/>
              </g>
              <g id="Group_43" data-name="Group 43">
                <path id="Path_96" data-name="Path 96" d="M178.044,265.472l-12.679-3.138a4.362,4.362,0,0,1-3.186-5.282l16.9-67.573a4.361,4.361,0,0,1,5.281-3.186l12.679,3.138a4.361,4.361,0,0,1,3.186,5.281l-16.894,67.573A4.363,4.363,0,0,1,178.044,265.472Z" fill="#f2f2f2"/>
                <path id="Path_97" data-name="Path 97" d="M217.865,225.2l-4.086,16.511A4.361,4.361,0,0,1,208.5,244.9L151.026,230.56a4.361,4.361,0,0,1-3.186-5.281l4.086-16.511a4.362,4.362,0,0,1,5.282-3.186l57.471,14.34A4.362,4.362,0,0,1,217.865,225.2Z" fill="#f2f2f2"/>
              </g>
            </g>
          </g>
        </g>
      </g>
      <line id="Line_8" data-name="Line 8" x2="404.087" transform="translate(49.121 453.346)" fill="none" stroke="#000" stroke-linecap="round" stroke-linejoin="round" stroke-width="1.029"/>
    </g>
  </g>
</svg>
